<svg xmlns="http://www.w3.org/2000/svg" viewBox="0 0 115.2 48" role="img" aria-label="GFX Glyph logotype"><title>GFX Glyph logotype</title><g transform="translate(0 0) scale(6.8571)"><path d="M0.06 0.06H0.94V0.94H0.06ZM1.06 0.06H1.94V0.94H1.06ZM2.06 0.06H2.94V0.94H2.06ZM3.06 0.06H3.94V0.94H3.06ZM4.06 0.06H4.94V0.94H4.06ZM0.06 1.06H0.94V1.94H0.06ZM0.06 2.06H0.94V2.94H0.06ZM0.06 3.06H0.94V3.94H0.06ZM2.06 3.06H2.94V3.94H2.06ZM3.06 3.06H3.94V3.94H3.06ZM4.06 3.06H4.94V3.94H4.06ZM0.06 4.06H0.94V4.94H0.06ZM4.06 4.06H4.94V4.94H4.06ZM0.06 5.06H0.94V5.94H0.06ZM4.06 5.06H4.94V5.94H4.06ZM0.06 6.06H0.94V6.94H0.06ZM1.06 6.06H1.94V6.94H1.06ZM2.06 6.06H2.94V6.94H2.06ZM3.06 6.06H3.94V6.94H3.06ZM4.06 6.06H4.94V6.94H4.06ZM5.96 0.06H6.84V0.94H5.96ZM6.96 0.06H7.84V0.94H6.96ZM7.96 0.06H8.84V0.94H7.96ZM8.96 0.06H9.84V0.94H8.96ZM9.96 0.06H10.84V0.94H9.96ZM5.96 1.06H6.84V1.94H5.96ZM5.96 2.06H6.84V2.94H5.96ZM5.96 3.06H6.84V3.94H5.96ZM6.96 3.06H7.84V3.94H6.96ZM7.96 3.06H8.84V3.94H7.96ZM8.96 3.06H9.84V3.94H8.96ZM5.96 4.06H6.84V4.94H5.96ZM5.96 5.06H6.84V5.94H5.96ZM5.96 6.06H6.84V6.94H5.96ZM11.86 0.06H12.74V0.94H11.86ZM15.86 0.06H16.74V0.94H15.86ZM11.86 1.06H12.74V1.94H11.86ZM15.86 1.06H16.74V1.94H15.86ZM12.86 2.06H13.74V2.94H12.86ZM14.86 2.06H15.74V2.94H14.86ZM13.86 3.06H14.74V3.94H13.86ZM12.86 4.06H13.74V4.94H12.86ZM14.86 4.06H15.74V4.94H14.86ZM11.86 5.06H12.74V5.94H11.86ZM15.86 5.06H16.74V5.94H15.86ZM11.86 6.06H12.74V6.94H11.86ZM15.86 6.06H16.74V6.94H15.86Z" fill="#e8e8ea"/></g></svg>
